<?xml version="1.0" encoding="utf-8"?>
<svg version="1.1" id="1" xmlns="http://www.w3.org/2000/svg" xmlns:xlink="http://www.w3.org/1999/xlink" x="0px" y="0px"
	 viewBox="0 0 594.1 109.2" style="enable-background:new 0 0 594.1 109.2;" xml:space="preserve">
<g>
	<g>
		<g>
			<path style="fill:#329ED8;" d="M125.4,30.3c13.4,0,24.3,10.9,24.3,24.3s-10.9,24.3-24.3,24.3c-7.3,0-13.9-3.3-18.4-8.4
				c-2.5,8.9-7.1,17-13.1,23.7c8.6,6.9,19.6,11,31.5,11c27.9,0,50.5-22.6,50.5-50.6c0-27.9-22.6-50.5-50.5-50.5
				c-11.9,0-22.9,4.1-31.5,11c6.1,6.7,10.6,14.7,13.1,23.7C111.4,33.6,118,30.3,125.4,30.3z"/>
		</g>
		<path style="fill:#329ED8;" d="M105.1,54.6c0-11.2,9.1-20.2,20.2-20.2V0C95.2,0,70.8,24.4,70.8,54.6H105.1z"/>
		<g>
			<path style="fill:#454545;" d="M50.5,78.9c-13.4,0-24.3-10.9-24.3-24.3s10.9-24.3,24.3-24.3c7.3,0,13.9,3.3,18.4,8.4
				C71.4,29.8,76,21.7,82,15C73.4,8.2,62.5,4,50.5,4C22.6,4,0,26.7,0,54.6s22.6,50.5,50.5,50.5c11.9,0,22.9-4.1,31.5-11
				c-6-6.6-10.6-14.7-13.1-23.7C64.5,75.6,57.9,78.9,50.5,78.9z"/>
		</g>
		<g>
			<path style="fill:#454545;" d="M70.8,54.6c0,11.2-9.1,20.2-20.2,20.2v34.4c30.1,0,54.6-24.4,54.6-54.6
				C105.2,54.6,70.8,54.6,70.8,54.6z"/>
			<path style="fill:#454545;" d="M50.5,109.2"/>
		</g>
	</g>
	<g>
		<path style="fill:#454545;" d="M282,38.4c-13.4,0-24.3,10.9-24.3,24.3S268.6,87,282,87s24.3-10.9,24.3-24.3S295.4,38.4,282,38.4z
			 M282,78.1c-8.5,0-15.4-6.9-15.4-15.4s6.9-15.4,15.4-15.4s15.4,6.9,15.4,15.4S290.5,78.1,282,78.1z"/>
		<polygon style="fill:#454545;" points="471.2,30.4 477.3,30.4 477.3,87.4 486.3,87.5 486.3,22.7 471.2,22.6 		"/>
		<path style="fill:#454545;" d="M236.3,75.8c-11.7-2.3-19.4-13.7-17.1-25.5c2.3-11.7,13.7-19.4,25.4-17.1c4.6,0.9,8.6,3.2,11.6,6.4
			c2.2-2.3,5.6-5,8.5-6.7c-4.5-5-10.6-8.7-17.8-10.1c-17.6-3.4-34.6,8-38,25.6c-3.4,17.6,8,34.6,25.6,38c7.2,1.4,14.2,0.3,20.3-2.7
			c-2-2.6-4.2-6.4-5.4-9.5C245.4,76,240.9,76.7,236.3,75.8z"/>
		<path style="fill:#454545;" d="M383,87.4h-10V60.9c0-5.1-0.7-8.8-2.2-11.1c-1.4-2.3-3.9-3.4-7.3-3.4c-2.9,0-5.3,1.4-7.3,4.3
			c-2,2.9-3,6.3-3,10.3v26.3h-10V60c0-9.1-3.2-13.6-9.6-13.6c-3,0-5.4,1.4-7.3,4.1c-1.9,2.7-2.9,6.3-2.9,10.6v26.3h-9.9V38.8h9.9
			v7.7h0.2c3.5-5.9,8.6-8.8,15.3-8.8c3.4,0,6.3,0.9,8.8,2.8c2.5,1.9,3.1,4.3,4,7.3c3.6-6.7,9-10.1,16.1-10.1c10.7,0,15,6.6,15,19.8
			v29.9H383z"/>
		<path style="fill:#454545;" d="M462.6,87.4h-10V60.9c0-5.1-0.7-8.8-2.2-11.1c-1.4-2.3-3.9-3.4-7.3-3.4c-2.9,0-5.3,1.4-7.3,4.3
			c-2,2.9-3,6.3-3,10.3v26.3h-10V60c0-9.1-3.2-13.6-9.6-13.6c-3,0-5.4,1.4-7.3,4.1c-1.9,2.7-2.9,6.3-2.9,10.6v26.3h-9.9V38.8h9.9
			v7.7h0.2c3.5-5.9,8.6-8.8,15.3-8.8c3.4,0,6.3,0.9,8.8,2.8c2.5,1.9,3.1,4.3,4,7.3c3.6-6.7,9-10.1,16.1-10.1c10.7,0,15,6.6,15,19.8
			v29.9H462.6z"/>
		<g>
			<path style="fill:#454545;" d="M542.2,55.1L542.2,55.1c-0.1-25.9-12.7-32.3-22.2-32.3c-9.6,0-22.2,6.4-22.2,32.3l0,0
				c0,0,0,0,0,0.1c0,0,0,0,0,0.1l0,0c0.1,25.9,13.6,32.3,22.2,32.3c10.1,0,22.2-6.4,22.2-32.3l0,0C542.2,55.2,542.2,55.2,542.2,55.1
				L542.2,55.1z M520,79.2c-7.6,0-12.9-7.5-12.9-24s5.3-24,12.9-24s12.9,7.5,12.9,24S527.6,79.2,520,79.2z"/>
			<path style="fill:#454545;" d="M594.1,55.1L594.1,55.1c-0.1-25.9-12.7-32.3-22.2-32.3c-9.6,0-22.2,6.4-22.2,32.3l0,0
				c0,0,0,0,0,0.1c0,0,0,0,0,0.1l0,0c0.1,25.9,13.6,32.3,22.2,32.3c10.1,0,22.2-6.4,22.2-32.3l0,0C594.1,55.2,594.1,55.2,594.1,55.1
				L594.1,55.1z M571.9,79.2c-7.6,0-12.9-7.5-12.9-24s5.3-24,12.9-24c7.6,0,12.9,7.5,12.9,24C584.8,71.7,579.5,79.2,571.9,79.2z"/>
		</g>
	</g>
</g>
</svg>
